<svg id="user_10_" data-name="user (10)" xmlns="http://www.w3.org/2000/svg" width="118.218" height="118.218" viewBox="0 0 118.218 118.218">
  <g id="Group_42" data-name="Group 42" transform="translate(0 0)">
    <path id="Path_46" data-name="Path 46" d="M100.906,17.313a59.109,59.109,0,0,0-83.593,83.593,59.109,59.109,0,0,0,83.593-83.593Zm-41.8,93.978A52.064,52.064,0,0,1,20.214,93.856a41.572,41.572,0,0,1,38.895-26.9A20.781,20.781,0,1,1,79.89,46.179,20.78,20.78,0,0,1,59.109,66.959,41.572,41.572,0,0,1,98,93.856,52.064,52.064,0,0,1,59.109,111.291Z" transform="translate(0 0)" fill="#024146"/>
  </g>
</svg>
