<svg id="surface1" xmlns="http://www.w3.org/2000/svg" width="22.744" height="25" viewBox="0 0 22.744 25">
  <path id="Path_327" data-name="Path 327" d="M17.038,10.822V6.091a.548.548,0,0,0-.151-.36l-5.3-5.57A.529.529,0,0,0,11.2,0H2.793A2.8,2.8,0,0,0,0,2.819v15.9a2.784,2.784,0,0,0,2.793,2.8H9.431a7.166,7.166,0,1,0,7.607-10.7ZM11.724,1.829l3.559,3.746H12.974a1.259,1.259,0,0,1-1.25-1.256ZM2.793,20.477a1.746,1.746,0,0,1-1.751-1.756V2.819A1.76,1.76,0,0,1,2.793,1.042h7.889V4.32a2.3,2.3,0,0,0,2.293,2.3H16v4.069c-.156-.005-.281-.021-.417-.021a7.27,7.27,0,0,0-4.752,1.792H4.21a.521.521,0,1,0,0,1.042H9.858a8.29,8.29,0,0,0-.917,1.615H4.21a.521.521,0,0,0,0,1.042H8.6a7.151,7.151,0,0,0,.313,4.325H2.793Zm12.782,3.486A6.122,6.122,0,1,1,21.7,17.841,6.129,6.129,0,0,1,15.574,23.963Zm0,0" fill="#12dc2d"/>
  <path id="Path_328" data-name="Path 328" d="M76.072,202.726H81.35a.521.521,0,1,0,0-1.042H76.072a.521.521,0,1,0,0,1.042Zm0,0" transform="translate(-71.862 -191.836)" fill="#12dc2d"/>
  <path id="Path_329" data-name="Path 329" d="M269.313,313.63h-1.594v-1.621a.521.521,0,1,0-1.042,0v1.621h-1.621a.521.521,0,1,0,0,1.042h1.621v1.594a.521.521,0,1,0,1.042,0v-1.594h1.594a.521.521,0,1,0,0-1.042Zm0,0" transform="translate(-251.618 -296.279)" fill="#12dc2d"/>
</svg>
