<svg width="24" height="24" viewBox="0 0 24 24" fill="none" xmlns="http://www.w3.org/2000/svg">
<g id="add-user (1)">
<g id="Group 211">
<g id="Group 210">
<path id="Path 283" d="M17.324 12.0409C16.8853 11.8327 16.4341 11.652 15.973 11.4999C17.0006 10.7318 17.7603 9.65956 18.1444 8.43537C18.5284 7.21118 18.5173 5.89715 18.1125 4.67965C17.7078 3.46215 16.93 2.40298 15.8895 1.65237C14.8489 0.901755 13.5985 0.497803 12.3155 0.497803C11.0325 0.497803 9.78201 0.901755 8.74148 1.65237C7.70094 2.40298 6.92315 3.46215 6.51841 4.67965C6.11367 5.89715 6.10252 7.21118 6.48656 8.43537C6.8706 9.65956 7.63032 10.7318 8.65797 11.4999C6.71012 12.1406 4.96514 13.2826 3.5983 14.8111C2.23145 16.3396 1.29085 18.2008 0.870974 20.2079C0.787414 20.6051 0.793479 21.016 0.888728 21.4105C0.983977 21.8051 1.16601 22.1735 1.42158 22.4888C1.67715 22.8042 1.99982 23.0585 2.36611 23.2335C2.73239 23.4084 3.13307 23.4994 3.53897 23.4999H14.603C14.8417 23.4999 15.0706 23.4051 15.2394 23.2363C15.4082 23.0675 15.503 22.8386 15.503 22.5999C15.503 22.3612 15.4082 22.1323 15.2394 21.9635C15.0706 21.7947 14.8417 21.6999 14.603 21.6999H3.53897C3.40108 21.7009 3.26476 21.6707 3.14023 21.6114C3.0157 21.5522 2.90621 21.4655 2.81997 21.3579C2.7316 21.2492 2.66867 21.1221 2.6358 20.9859C2.60292 20.8498 2.60093 20.708 2.62997 20.5709C3.09309 18.3907 4.2765 16.4298 5.98964 15.004C7.70277 13.5782 9.84593 12.7705 12.074 12.7109C12.1533 12.7109 12.2326 12.7109 12.312 12.7109C12.3913 12.7109 12.4716 12.7109 12.553 12.7109C13.9385 12.7408 15.3019 13.0646 16.553 13.6609C16.7657 13.7469 17.0032 13.7484 17.217 13.665C17.4308 13.5817 17.6047 13.4199 17.7031 13.2127C17.8016 13.0054 17.8172 12.7684 17.7467 12.55C17.6762 12.3317 17.525 12.1485 17.324 12.0379V12.0409ZM12.532 10.9159H12.313H12.096C10.9725 10.8589 9.91568 10.3652 9.15103 9.54011C8.38637 8.71499 7.97435 7.62376 8.00286 6.49917C8.03136 5.37458 8.49813 4.30563 9.30361 3.52031C10.1091 2.73499 11.1895 2.29546 12.3145 2.29546C13.4394 2.29546 14.5199 2.73499 15.3253 3.52031C16.1308 4.30563 16.5976 5.37458 16.6261 6.49917C16.6546 7.62376 16.2426 8.71499 15.4779 9.54011C14.7133 10.3652 13.6555 10.8589 12.532 10.9159Z" fill="#12DC2D"/>
</g>
</g>
<g id="Group 213">
<g id="Group 212">
<path id="Path 284" d="M22.9143 18.3338H20.4433V15.8648C20.4433 15.6261 20.3485 15.3972 20.1797 15.2285C20.011 15.0597 19.782 14.9648 19.5433 14.9648C19.3046 14.9648 19.0757 15.0597 18.907 15.2285C18.7382 15.3972 18.6433 15.6261 18.6433 15.8648V18.3358H16.1773C15.9386 18.3358 15.7097 18.4307 15.541 18.5995C15.3722 18.7682 15.2773 18.9971 15.2773 19.2358C15.2773 19.4745 15.3722 19.7035 15.541 19.8723C15.7097 20.041 15.9386 20.1358 16.1773 20.1358H18.6483V22.6068C18.6483 22.8455 18.7432 23.0744 18.912 23.2432C19.0807 23.412 19.3096 23.5068 19.5483 23.5068C19.787 23.5068 20.016 23.412 20.1848 23.2432C20.3535 23.0744 20.4483 22.8455 20.4483 22.6068V20.1358H22.9193C23.158 20.1358 23.3869 20.041 23.5557 19.8723C23.7245 19.7035 23.8193 19.4745 23.8193 19.2358C23.8193 18.9971 23.7245 18.7682 23.5557 18.5995C23.3869 18.4307 23.158 18.3358 22.9193 18.3358L22.9143 18.3338Z" fill="#12DC2D"/>
</g>
</g>
</g>
</svg>
