<svg id="income" xmlns="http://www.w3.org/2000/svg" width="27.026" height="27.026" viewBox="0 0 27.026 27.026">
                                    <path id="Path_265" data-name="Path 265" d="M291.913,51.938l1.852,1.37a.276.276,0,0,1-.16.5l-.581,0h0a.273.273,0,0,1-.273-.27.792.792,0,1,0-1.583.01,1.859,1.859,0,0,0,1.352,1.774v.038a.792.792,0,1,0,1.583,0v-.04a1.857,1.857,0,0,0,1.357-1.8v0a1.865,1.865,0,0,0-.752-1.479l-1.852-1.37a.272.272,0,0,1,.162-.491h.582a.273.273,0,0,1,.272.272.792.792,0,1,0,1.583,0A1.859,1.859,0,0,0,294.1,48.66v-.038a.792.792,0,1,0-1.583,0v.037a1.855,1.855,0,0,0-.6,3.279Z" transform="translate(-275.792 -45.305)" fill="#c54299"/>
                                    <path id="Path_266" data-name="Path 266" d="M211.868,13.371a6.686,6.686,0,1,0-6.687-6.686A6.694,6.694,0,0,0,211.868,13.371Zm0-11.788a5.1,5.1,0,1,1-5.1,5.1A5.109,5.109,0,0,1,211.868,1.584Z" transform="translate(-194.351 0)" fill="#c54299"/>
                                    <path id="Path_267" data-name="Path 267" d="M26.481,261.556a2.583,2.583,0,0,0-3.515-.538l-3.012,2.015a2.483,2.483,0,0,0-2.187-1.311H15.618a5.882,5.882,0,0,0-9.2,1.487l-.4.247-.1-.306a.792.792,0,0,0-1.005-.493L.536,264.151a.792.792,0,0,0-.493,1.005l2.643,7.731a.792.792,0,0,0,1.005.493l4.368-1.493a.792.792,0,0,0,.484-1.031l6.932-.215a9,9,0,0,0,5.236-1.677l5.227-3.718A2.582,2.582,0,0,0,26.481,261.556ZM3.928,271.626,1.8,265.393l2.87-.981L6.8,270.645Zm21.093-7.669-5.227,3.718a7.427,7.427,0,0,1-4.33,1.383h-.024l-7.431.23-1.469-4.3.893-.546h0a.8.8,0,0,0,.3-.326,4.3,4.3,0,0,1,6.987-1.061.8.8,0,0,0,.576.248h2.475a.9.9,0,1,1,0,1.793H13.3a.792.792,0,0,0,0,1.584h4.467a2.483,2.483,0,0,0,2.411-1.894l3.675-2.459.013-.009a1,1,0,0,1,1.155,1.635Z" transform="translate(0 -246.397)" fill="#c54299"/>
                                  </svg>