<svg width="21" height="20" viewBox="0 0 21 20" fill="none" xmlns="http://www.w3.org/2000/svg">
<g id="Download">
<path id="Path 326" d="M20.372 16.754V13.354C20.372 13.1285 20.2825 12.9123 20.1231 12.7529C19.9637 12.5935 19.7475 12.504 19.522 12.504C19.2966 12.504 19.0804 12.5935 18.921 12.7529C18.7616 12.9123 18.672 13.1285 18.672 13.354V16.754C18.672 16.9791 18.5826 17.1951 18.4234 17.3543C18.2641 17.5135 18.0482 17.603 17.823 17.603H2.54802C2.32285 17.603 2.10691 17.5135 1.94769 17.3543C1.78847 17.1951 1.69902 16.9791 1.69902 16.754V13.354C1.69902 13.1285 1.60947 12.9123 1.45006 12.7529C1.29066 12.5935 1.07446 12.504 0.849024 12.504C0.62359 12.504 0.407389 12.5935 0.247983 12.7529C0.0885768 12.9123 -0.000976562 13.1285 -0.000976562 13.354V16.754C-0.000976562 17.4292 0.267262 18.0768 0.74473 18.5542C1.2222 19.0317 1.86978 19.3 2.54502 19.3H17.826C18.5013 19.3 19.1488 19.0317 19.6263 18.5542C20.1038 18.0768 20.372 17.4292 20.372 16.754ZM14.957 12.328L10.713 15.728C10.5632 15.8462 10.3779 15.9105 10.187 15.9105C9.99615 15.9105 9.81085 15.8462 9.66102 15.728L5.41702 12.328C5.26371 12.1817 5.17063 11.9834 5.15607 11.772C5.14151 11.5606 5.20653 11.3514 5.33835 11.1855C5.47017 11.0196 5.65926 10.909 5.86847 10.8754C6.07768 10.8418 6.2919 10.8877 6.46902 11.004L9.33802 13.296V1.47695C9.33802 1.25152 9.42758 1.03532 9.58698 0.875912C9.74639 0.716506 9.96259 0.626953 10.188 0.626953C10.4135 0.626953 10.6297 0.716506 10.7891 0.875912C10.9485 1.03532 11.038 1.25152 11.038 1.47695V13.292L13.902 11C13.9885 10.9243 14.0894 10.8669 14.1987 10.8313C14.3079 10.7958 14.4233 10.7828 14.5377 10.7931C14.6522 10.8035 14.7633 10.837 14.8645 10.8915C14.9656 10.9461 15.0546 11.0206 15.1261 11.1106C15.1976 11.2006 15.25 11.3041 15.2803 11.415C15.3106 11.5258 15.3181 11.6417 15.3022 11.7555C15.2864 11.8693 15.2477 11.9787 15.1884 12.0771C15.129 12.1755 15.0503 12.2609 14.957 12.328Z" fill="white"/>
</g>
</svg>
