<svg xmlns="http://www.w3.org/2000/svg" width="29.13" height="29.13" viewBox="0 0 29.13 29.13">
  <g id="editing_1_" data-name="editing (1)" transform="translate(0 -0.001)">
    <path id="Path_315" data-name="Path 315" d="M23.612,89.949a.853.853,0,0,0-.853.853V103.32a1.424,1.424,0,0,1-1.422,1.422H3.129a1.424,1.424,0,0,1-1.422-1.422V85.113a1.424,1.424,0,0,1,1.422-1.422H15.646a.853.853,0,1,0,0-1.707H3.129A3.133,3.133,0,0,0,0,85.113V103.32a3.133,3.133,0,0,0,3.129,3.129H21.336a3.133,3.133,0,0,0,3.129-3.129V90.8A.853.853,0,0,0,23.612,89.949Z" transform="translate(0 -77.319)" fill="#5f655e"/>
    <path id="Path_316" data-name="Path 316" d="M197.511,2.192,195.9.583a1.994,1.994,0,0,0-2.816,0L180.211,13.457a.854.854,0,0,0-.233.436l-.8,4.023a.853.853,0,0,0,1,1l4.023-.8a.854.854,0,0,0,.436-.233L197.511,5.008h0a1.994,1.994,0,0,0,0-2.816Zm-13.9,14.3L181.1,17l.5-2.514L192.08,4l2.012,2.012ZM196.3,3.8,195.3,4.807,193.287,2.8l1.006-1.006a.285.285,0,0,1,.4,0L196.3,3.4A.285.285,0,0,1,196.3,3.8Z" transform="translate(-168.963)" fill="#5f655e"/>
  </g>
</svg>
