<svg width="24" height="23" viewBox="0 0 24 23" fill="none" xmlns="http://www.w3.org/2000/svg">
<g id="gear (1)">
<path id="Path 371" d="M22.4751 8.19802H21.1951C21.079 7.86719 20.9455 7.54274 20.7951 7.22602L21.6951 6.32602C21.7567 6.26444 21.8056 6.19133 21.839 6.11086C21.8723 6.03039 21.8895 5.94413 21.8895 5.85702C21.8895 5.76991 21.8723 5.68365 21.839 5.60318C21.8056 5.5227 21.7567 5.44959 21.6951 5.38802L17.9461 1.63802C17.8846 1.5764 17.8114 1.52751 17.731 1.49416C17.6505 1.46081 17.5642 1.44364 17.4771 1.44364C17.39 1.44364 17.3038 1.46081 17.2233 1.49416C17.1428 1.52751 17.0697 1.5764 17.0081 1.63802L16.1081 2.53802C15.7914 2.38764 15.4669 2.25412 15.1361 2.13802V0.861017C15.1361 0.773697 15.1189 0.687238 15.0854 0.606603C15.0519 0.525968 15.0028 0.452746 14.9409 0.391141C14.879 0.329537 14.8056 0.280763 14.7248 0.247621C14.644 0.214479 14.5574 0.197622 14.4701 0.198017H9.16312C9.07564 0.197357 8.98889 0.214019 8.90787 0.247042C8.82685 0.280066 8.75317 0.328797 8.69108 0.390428C8.62898 0.452059 8.5797 0.525371 8.54607 0.606138C8.51243 0.686904 8.49512 0.773528 8.49512 0.861017V2.14002C8.16429 2.25611 7.83984 2.38963 7.52312 2.54002L6.62312 1.64002C6.56155 1.5784 6.48844 1.52951 6.40797 1.49616C6.32749 1.46281 6.24123 1.44564 6.15412 1.44564C6.06701 1.44564 5.98076 1.46281 5.90028 1.49616C5.81981 1.52951 5.7467 1.5784 5.68512 1.64002L1.93512 5.39002C1.8735 5.45159 1.82462 5.5247 1.79127 5.60518C1.75791 5.68565 1.74075 5.77191 1.74075 5.85902C1.74075 5.94613 1.75791 6.03239 1.79127 6.11286C1.82462 6.19333 1.8735 6.26645 1.93512 6.32802L2.83512 7.22802C2.68474 7.54474 2.55122 7.86919 2.43512 8.20002H1.15812C1.0708 8.20002 0.984345 8.21726 0.90371 8.25077C0.823075 8.28428 0.749853 8.33338 0.688248 8.39526C0.626644 8.45715 0.57787 8.53059 0.544728 8.61138C0.511586 8.69216 0.494729 8.7787 0.495124 8.86602V14.173C0.495124 14.3489 0.564976 14.5175 0.689312 14.6418C0.813649 14.7662 0.982285 14.836 1.15812 14.836H2.43712C2.55321 15.1668 2.68673 15.4913 2.83712 15.808L1.93712 16.708C1.8755 16.7696 1.82662 16.8427 1.79327 16.9232C1.75991 17.0036 1.74275 17.0899 1.74275 17.177C1.74275 17.2641 1.75991 17.3504 1.79327 17.4309C1.82662 17.5113 1.8755 17.5844 1.93712 17.646L5.68712 21.398C5.7487 21.4596 5.82181 21.5085 5.90228 21.5419C5.98276 21.5752 6.06901 21.5924 6.15612 21.5924C6.24323 21.5924 6.32949 21.5752 6.40997 21.5419C6.49044 21.5085 6.56355 21.4596 6.62512 21.398L7.52512 20.498C7.84119 20.6483 8.16497 20.7819 8.49512 20.898V22.178C8.49512 22.3539 8.56498 22.5225 8.68931 22.6468C8.81365 22.7712 8.98229 22.841 9.15812 22.841H14.4651C14.641 22.841 14.8096 22.7712 14.9339 22.6468C15.0583 22.5225 15.1281 22.3539 15.1281 22.178V20.898C15.459 20.782 15.7834 20.6484 16.1001 20.498L17.0001 21.398C17.0617 21.4596 17.1348 21.5085 17.2153 21.5419C17.2958 21.5752 17.382 21.5924 17.4691 21.5924C17.5562 21.5924 17.6425 21.5752 17.723 21.5419C17.8034 21.5085 17.8766 21.4596 17.9381 21.398L21.6951 17.649C21.7567 17.5874 21.8056 17.5143 21.839 17.4339C21.8723 17.3534 21.8895 17.2671 21.8895 17.18C21.8895 17.0929 21.8723 17.0066 21.839 16.9262C21.8056 16.8457 21.7567 16.7726 21.6951 16.711L20.7951 15.811C20.9455 15.4943 21.079 15.1698 21.1951 14.839H22.4751C22.651 14.839 22.8196 14.7692 22.9439 14.6448C23.0683 14.5205 23.1381 14.3519 23.1381 14.176V8.86602C23.1388 8.77853 23.1221 8.69178 23.0891 8.61076C23.0561 8.52975 23.0073 8.45607 22.9457 8.39397C22.8841 8.33187 22.8108 8.28259 22.73 8.24896C22.6492 8.21533 22.5626 8.19801 22.4751 8.19802ZM21.8121 13.505H20.7121C20.5692 13.5049 20.43 13.551 20.3154 13.6364C20.2008 13.7218 20.1169 13.842 20.0761 13.979C19.9085 14.5468 19.6827 15.0957 19.4021 15.617C19.334 15.7427 19.3082 15.887 19.3288 16.0284C19.3493 16.1699 19.415 16.3009 19.5161 16.402L20.2891 17.175L17.4771 19.998L16.7041 19.225C16.6031 19.1239 16.472 19.0582 16.3306 19.0377C16.1891 19.0171 16.0448 19.0429 15.9191 19.111C15.3978 19.3915 14.8489 19.6174 14.2811 19.785C14.1441 19.8258 14.0239 19.9097 13.9385 20.0243C13.8531 20.1389 13.807 20.2781 13.8071 20.421V21.521H9.82612V20.421C9.82623 20.2781 9.78014 20.1389 9.69473 20.0243C9.60931 19.9097 9.48913 19.8258 9.35212 19.785C8.78435 19.6174 8.23543 19.3916 7.71412 19.111C7.58847 19.0429 7.44416 19.0171 7.30269 19.0377C7.16123 19.0582 7.03019 19.1239 6.92912 19.225L6.15612 19.998L3.34212 17.18L4.11512 16.407C4.21621 16.3059 4.28193 16.1749 4.30247 16.0334C4.32302 15.892 4.29729 15.7477 4.22912 15.622C3.9486 15.1007 3.72273 14.5518 3.55512 13.984C3.51438 13.847 3.43044 13.7268 3.31583 13.6414C3.20121 13.556 3.06207 13.5099 2.91912 13.51H1.81912V9.52902H2.91912C3.06207 9.52913 3.20121 9.48304 3.31583 9.39762C3.43044 9.3122 3.51438 9.19203 3.55512 9.05502C3.72281 8.48759 3.94868 7.93901 4.22912 7.41802C4.29729 7.29237 4.32302 7.14805 4.30247 7.00659C4.28193 6.86512 4.21621 6.73409 4.11512 6.63302L3.34212 5.86002L6.15612 3.04502L6.92912 3.81802C7.03028 3.91896 7.1613 3.98458 7.30273 4.00512C7.44416 4.02566 7.58843 4.00002 7.71412 3.93202C8.23543 3.65149 8.78435 3.42562 9.35212 3.25802C9.48913 3.21727 9.60931 3.13333 9.69473 3.01872C9.78014 2.90411 9.82623 2.76496 9.82612 2.62202V1.52202H13.8061V2.62202C13.806 2.76496 13.8521 2.90411 13.9375 3.01872C14.0229 3.13333 14.1431 3.21727 14.2801 3.25802C14.8479 3.42563 15.3968 3.6515 15.9181 3.93202C16.0438 4.00018 16.1881 4.02591 16.3296 4.00536C16.471 3.98482 16.6021 3.91911 16.7031 3.81802L17.4761 3.04502L20.2951 5.85902L19.5221 6.63202C19.421 6.73309 19.3553 6.86412 19.3348 7.00559C19.3142 7.14705 19.34 7.29137 19.4081 7.41702C19.6887 7.93832 19.9145 8.48724 20.0821 9.05502C20.1229 9.19203 20.2068 9.3122 20.3214 9.39762C20.436 9.48304 20.5752 9.52913 20.7181 9.52902H21.8181L21.8121 13.505Z" fill="#5F655E"/>
<path id="Path 372" d="M11.8195 4.22192C10.3757 4.22192 8.96435 4.65006 7.76387 5.45219C6.5634 6.25433 5.62773 7.39443 5.07521 8.72833C4.52269 10.0622 4.37813 11.53 4.6598 12.9461C4.94147 14.3621 5.63673 15.6629 6.65766 16.6838C7.67858 17.7047 8.97931 18.4 10.3954 18.6817C11.8114 18.9633 13.2792 18.8188 14.6131 18.2662C15.947 17.7137 17.0871 16.7781 17.8893 15.5776C18.6914 14.3771 19.1195 12.9657 19.1195 11.5219C19.1182 9.58625 18.3487 7.73023 16.98 6.3615C15.6112 4.99278 13.7552 4.22325 11.8195 4.22192ZM11.8195 17.4889C10.6388 17.4889 9.48454 17.1388 8.50278 16.4828C7.52102 15.8268 6.75583 14.8944 6.30397 13.8035C5.85212 12.7127 5.73389 11.5123 5.96425 10.3542C6.1946 9.19617 6.76319 8.13241 7.59811 7.29749C8.43303 6.46257 9.49678 5.89399 10.6548 5.66364C11.8129 5.43328 13.0133 5.55151 14.1042 6.00336C15.195 6.45522 16.1274 7.22041 16.7834 8.20217C17.4394 9.18393 17.7895 10.3382 17.7895 11.5189C17.7877 13.1017 17.1581 14.6191 16.0389 15.7383C14.9197 16.8575 13.4023 17.4871 11.8195 17.4889Z" fill="#5F655E"/>
<path id="Path 373" d="M13.9286 11.133C14.2277 10.7394 14.411 10.2701 14.4577 9.77803C14.5045 9.28593 14.4129 8.79055 14.1932 8.34772C13.9736 7.90488 13.6346 7.5322 13.2145 7.27165C12.7944 7.0111 12.31 6.87305 11.8156 6.87305C11.3213 6.87305 10.8368 7.0111 10.4167 7.27165C9.99667 7.5322 9.65772 7.90488 9.43806 8.34772C9.21841 8.79055 9.12679 9.28593 9.17354 9.77803C9.22029 10.2701 9.40353 10.7394 9.70264 11.133C9.21034 11.3661 8.79435 11.7343 8.50298 12.1945C8.2116 12.6548 8.05682 13.1882 8.05664 13.733V14.617C8.05664 14.704 8.07378 14.7902 8.1071 14.8707C8.14042 14.9511 8.18926 15.0242 8.25082 15.0858C8.31239 15.1473 8.38549 15.1962 8.46593 15.2295C8.54637 15.2628 8.63257 15.28 8.71964 15.28H14.9106C15.0865 15.28 15.2551 15.2101 15.3795 15.0858C15.5038 14.9614 15.5736 14.7928 15.5736 14.617V13.733C15.5735 13.1883 15.4189 12.6549 15.1277 12.1947C14.8365 11.7344 14.4207 11.3663 13.9286 11.133ZM11.8156 8.20296C12.0781 8.20296 12.3347 8.28079 12.5529 8.42661C12.7711 8.57242 12.9412 8.77966 13.0416 9.02214C13.1421 9.26462 13.1683 9.53144 13.1171 9.78885C13.0659 10.0463 12.9396 10.2827 12.754 10.4683C12.5684 10.6539 12.3319 10.7803 12.0745 10.8315C11.8171 10.8827 11.5503 10.8564 11.3078 10.756C11.0653 10.6555 10.8581 10.4854 10.7123 10.2672C10.5665 10.049 10.4886 9.79242 10.4886 9.52997C10.4889 9.17811 10.6288 8.84072 10.8776 8.59192C11.1264 8.34312 11.4638 8.20322 11.8156 8.20296ZM14.2476 13.952H9.38264V13.731C9.38317 13.3206 9.54643 12.9271 9.83662 12.6369C10.1268 12.3468 10.5202 12.1835 10.9306 12.183H12.6996C13.11 12.1835 13.5035 12.3468 13.7937 12.6369C14.0838 12.9271 14.2471 13.3206 14.2476 13.731V13.952Z" fill="#5F655E"/>
</g>
</svg>
