<svg xmlns="http://www.w3.org/2000/svg" width="38.093" height="30.475" viewBox="0 0 38.093 30.475">
  <g id="id-card" transform="translate(-2 -4)">
    <path id="Path_177" data-name="Path 177" d="M13.91,13.733A4.233,4.233,0,1,1,9.677,9.5,4.233,4.233,0,0,1,13.91,13.733Zm-1.9,0A2.328,2.328,0,1,1,9.677,11.4,2.328,2.328,0,0,1,12,13.733Z" transform="translate(3.116 4.976)" fill="#c2c2c2" fill-rule="evenodd"/>
    <path id="Path_178" data-name="Path 178" d="M6.4,20.365a4.127,4.127,0,1,1,8.254,0h1.9a6.031,6.031,0,1,0-12.063,0Z" transform="translate(2.262 9.348)" fill="#c2c2c2"/>
    <g id="Group_171" data-name="Group 171" transform="translate(2 4)">
      <path id="Path_179" data-name="Path 179" d="M24.88,10.952a.952.952,0,0,1-.952.952H13.452a.952.952,0,0,1,0-1.9H23.928A.952.952,0,0,1,24.88,10.952Z" transform="translate(7.499 1.428)" fill="#c2c2c2" fill-rule="evenodd"/>
      <path id="Path_180" data-name="Path 180" d="M24.88,13.952a.952.952,0,0,1-.952.952H13.452a.952.952,0,0,1,0-1.9H23.928A.952.952,0,0,1,24.88,13.952Z" transform="translate(7.499 4.142)" fill="#c2c2c2" fill-rule="evenodd"/>
      <path id="Path_181" data-name="Path 181" d="M24.88,16.952a.952.952,0,0,1-.952.952H13.452a.952.952,0,0,1,0-1.9H23.928A.952.952,0,0,1,24.88,16.952Z" transform="translate(7.499 6.856)" fill="#c2c2c2" fill-rule="evenodd"/>
      <path id="Path_182" data-name="Path 182" d="M15.333,4a2.857,2.857,0,0,0-2.857,2.857H6.762A4.762,4.762,0,0,0,2,11.619V29.713a4.762,4.762,0,0,0,4.762,4.762h28.57a4.762,4.762,0,0,0,4.762-4.762V11.619a4.762,4.762,0,0,0-4.762-4.762H29.618A2.857,2.857,0,0,0,26.761,4ZM29.618,8.762a2.857,2.857,0,0,1-2.857,2.857H15.333a2.857,2.857,0,0,1-2.857-2.857H6.762A2.857,2.857,0,0,0,3.9,11.619V29.713A2.857,2.857,0,0,0,6.762,32.57h28.57a2.857,2.857,0,0,0,2.857-2.857V11.619a2.857,2.857,0,0,0-2.857-2.857ZM14.38,6.857a.952.952,0,0,1,.952-.952H26.761a.952.952,0,0,1,.952.952v1.9a.952.952,0,0,1-.952.952H15.333a.952.952,0,0,1-.952-.952Z" transform="translate(-2 -4)" fill="#c2c2c2" fill-rule="evenodd"/>
    </g>
  </g>
</svg>
