<svg xmlns="http://www.w3.org/2000/svg" width="40" height="45.167" viewBox="0 0 40 45.167">
  <g id="jpg-file-format-variant" transform="translate(-31.504)">
    <path id="Path_313" data-name="Path 313" d="M238.794,250.539a5.072,5.072,0,0,0-1.236.118v3.9a4.574,4.574,0,0,0,1,.079c1.59,0,2.571-.805,2.571-2.158C241.13,251.265,240.286,250.539,238.794,250.539Z" transform="translate(-189.157 -229.994)" fill="#024146"/>
    <path id="Path_314" data-name="Path 314" d="M68.972,16.156H67.888V10.923a.764.764,0,0,0-.01-.1.869.869,0,0,0-.21-.574L58.96.3S58.955.3,58.953.3a.879.879,0,0,0-.176-.148c-.019-.013-.038-.023-.058-.034a.913.913,0,0,0-.175-.073c-.016,0-.031-.011-.048-.016a.884.884,0,0,0-.2-.025h-21.4A1.773,1.773,0,0,0,35.12,1.771V16.156H34.036A2.532,2.532,0,0,0,31.5,18.687V31.852a2.532,2.532,0,0,0,2.532,2.531H35.12V43.4a1.773,1.773,0,0,0,1.771,1.771H66.117A1.774,1.774,0,0,0,67.888,43.4V34.384h1.085A2.532,2.532,0,0,0,71.5,31.852V18.688A2.532,2.532,0,0,0,68.972,16.156ZM36.891,1.772H57.407v9.062a.886.886,0,0,0,.886.886h7.824v4.437H36.891ZM54.935,22.409a4.231,4.231,0,0,1-1.216,3.14,6.134,6.134,0,0,1-4.3,1.392,7.514,7.514,0,0,1-1.021-.058v4.729H45.438V18.564a24.384,24.384,0,0,1,4.042-.275,6.347,6.347,0,0,1,4.043,1.06A3.867,3.867,0,0,1,54.935,22.409Zm-18.877,9.1.334-2.413a4.911,4.911,0,0,0,1.53.236c1.257,0,2.041-.57,2.041-2.63v-8.32h2.982v8.359c0,3.768-1.806,5.082-4.709,5.082A7.742,7.742,0,0,1,36.057,31.513Zm30.059,11.4H36.891V34.384H66.117v8.532ZM67.887,31a14.8,14.8,0,0,1-4.416.745A7.369,7.369,0,0,1,58.1,29.964a6.4,6.4,0,0,1-1.865-4.807c.019-4.4,3.217-6.907,7.555-6.907a9.1,9.1,0,0,1,3.67.647l-.628,2.394a7.333,7.333,0,0,0-3.081-.569c-2.492,0-4.374,1.413-4.374,4.278A4.33,4.33,0,0,0,65,29.139V26.372H62.962V24.038h4.925V31Z" fill="#024146"/>
  </g>
</svg>
