<svg xmlns="http://www.w3.org/2000/svg" width="21.966" height="20.923" viewBox="0 0 21.966 20.923">
  <g id="key_2_" data-name="key (2)" transform="translate(0.689 0.656)">
    <g id="Group_3" data-name="Group 3" transform="translate(-0.689 -0.656)">
      <g id="Group_2" data-name="Group 2">
        <path id="Path_2" data-name="Path 2" d="M321.417,68.383a2.34,2.34,0,1,0,3.309,0A2.342,2.342,0,0,0,321.417,68.383Zm2.8,2.8a1.617,1.617,0,1,1,.474-1.143A1.606,1.606,0,0,1,324.215,71.181Z" transform="translate(-306.027 -65.116)" fill="#c2c2c2"/>
        <path id="Path_3" data-name="Path 3" d="M20.233,13.1a5.927,5.927,0,0,0-10.039,5.152L.106,28.344a.361.361,0,0,0-.1.295l.266,2.435a.361.361,0,0,0,.283.314l4.179.9a.361.361,0,0,0,.427-.268l.681-2.8,2.724-.606a.361.361,0,0,0,.271-.26l.769-2.9L12.26,24.9a.362.362,0,0,0,.183-.1l1.849-1.849A5.927,5.927,0,0,0,20.233,13.1Zm-.511,7.871a5.2,5.2,0,0,1-5.409,1.23.362.362,0,0,0-.375.085l-1.929,1.929-2.771.567a.361.361,0,0,0-.277.261l-.77,2.9-2.729.607a.361.361,0,0,0-.273.267l-.651,2.681-3.187-.685,8.956-8.956L9.8,21.354.9,30.246.739,28.732l10.1-10.1a.361.361,0,0,0,.1-.325,5.2,5.2,0,1,1,8.785,2.667Z" transform="translate(0 -11.37)" fill="#c2c2c2"/>
      </g>
    </g>
  </g>
</svg>
