<svg xmlns="http://www.w3.org/2000/svg" width="30.618" height="30.611" viewBox="0 0 30.618 30.611">
  <g id="coin" transform="translate(0 -0.062)">
    <g id="Group_224" data-name="Group 224" transform="translate(0 10.881)">
      <g id="Group_223" data-name="Group 223">
        <path id="Path_298" data-name="Path 298" d="M13.765,181.764a10.051,10.051,0,0,0-7.735,0,9.9,9.9,0,1,0,7.735,0Zm-4.472,7.93c.59.59,1.235-.191,2.537,1.111a2.693,2.693,0,0,1-.882,4.393c-.039.016-.084.01-.123.024V196.3a.9.9,0,1,1-1.794,0V195.22a3.434,3.434,0,0,1-1.32-.794.9.9,0,1,1,1.246-1.289c1.28,1.235,2.4-.267,1.606-1.063-.592-.592-1.455.031-2.537-1.051a2.993,2.993,0,0,1-.788-1.962,2.668,2.668,0,0,1,1.794-2.529v-1.059a.9.9,0,1,1,1.794,0v1.046a3.672,3.672,0,0,1,1.641,1.17.9.9,0,1,1-1.374,1.153C9.756,187.252,8.446,188.847,9.293,189.694Z" transform="translate(0 -180.99)" fill="#5f655e"/>
      </g>
    </g>
    <g id="Group_226" data-name="Group 226" transform="translate(12.618 0.062)">
      <g id="Group_225" data-name="Group 225" transform="translate(0 0)">
        <path id="Path_299" data-name="Path 299" d="M216.669.359C214.254.776,211,2.113,211,4.539V9.411a11.471,11.471,0,0,1,1.794.572v0c.018,0,.036.018.054.018a11.73,11.73,0,0,1,3.369,2.228c.264.053.511.123.776.176,3.818.727,8.341-.091,9.819-1.65a.72.72,0,0,1,.395-.215v2.189c-1.442,1.042-5.205,2.084-9.156,1.633a11.081,11.081,0,0,1,1.6,3.678,13.954,13.954,0,0,0,5.669-.951,5,5,0,0,0,1.5-.951.72.72,0,0,1,.395-.215v2.189a13.677,13.677,0,0,1-7.272,1.74,11.733,11.733,0,0,1-.286,3.63,13.95,13.95,0,0,0,5.668-.951c.695-.318,1.89-.959,1.89-1.722V23.55c-1.306.943-4.643,1.925-8.13,1.722a.32.32,0,0,0-.021.072,9.963,9.963,0,0,1-1.624,2.637c-.162.2-.3.42-.475.61l-.025,0a5.674,5.674,0,0,1-1.594,1.463l.04.013a15.977,15.977,0,0,0,4.593.61c3.771,0,9.03-1.375,9.03-4.485V4.539C229,1.071,222.2-.68,216.669.359ZM226.82,5.317a8.242,8.242,0,0,1-3.873,1.647,16.823,16.823,0,0,1-5.953,0,7.708,7.708,0,0,1-3.812-1.647,1.174,1.174,0,0,1-.387-.778c0-.749,1.146-1.413,1.832-1.717a15.151,15.151,0,0,1,10.69,0c.715.317,1.891.936,1.891,1.717A1.177,1.177,0,0,1,226.82,5.317Z" transform="translate(-211 -0.062)" fill="#5f655e"/>
      </g>
    </g>
  </g>
</svg>
