<svg id="group_3_" data-name="group (3)" xmlns="http://www.w3.org/2000/svg" width="30.409" height="25.214" viewBox="0 0 30.409 25.214">
                                    <g id="Group_3" data-name="Group 3" transform="translate(0 11.044)">
                                      <g id="Group_2" data-name="Group 2">
                                        <path id="Path_24" data-name="Path 24" d="M25.954,231.965H22.978a4.443,4.443,0,0,0-1.171.157,4.458,4.458,0,0,0-3.972-2.442H12.574A4.458,4.458,0,0,0,8.6,232.122a4.443,4.443,0,0,0-1.171-.157H4.454A4.459,4.459,0,0,0,0,236.419v4.758a2.676,2.676,0,0,0,2.673,2.673H27.736a2.676,2.676,0,0,0,2.673-2.673v-4.758A4.459,4.459,0,0,0,25.954,231.965Zm-17.835,2.17v7.934H2.673a.892.892,0,0,1-.891-.891v-4.758a2.676,2.676,0,0,1,2.673-2.673H7.431a2.664,2.664,0,0,1,.7.093C8.124,233.938,8.119,234.036,8.119,234.135Zm12.389,7.934H9.9v-7.934a2.676,2.676,0,0,1,2.673-2.673h5.262a2.676,2.676,0,0,1,2.673,2.673Zm8.119-.891a.892.892,0,0,1-.891.891H22.29v-7.934c0-.1,0-.2-.011-.294a2.667,2.667,0,0,1,.7-.093h2.977a2.676,2.676,0,0,1,2.673,2.673Z" transform="translate(0 -229.68)" fill="#05b21c"/>
                                      </g>
                                    </g>
                                    <g id="Group_5" data-name="Group 5" transform="translate(1.985 4.916)">
                                      <g id="Group_4" data-name="Group 4">
                                        <path id="Path_25" data-name="Path 25" d="M37.372,126.5a3.958,3.958,0,1,0,3.958,3.958A3.963,3.963,0,0,0,37.372,126.5Zm0,6.135a2.176,2.176,0,1,1,2.176-2.176A2.179,2.179,0,0,1,37.372,132.639Z" transform="translate(-33.414 -126.504)" fill="#05b21c"/>
                                      </g>
                                    </g>
                                    <g id="Group_7" data-name="Group 7" transform="translate(9.916 0)">
                                      <g id="Group_6" data-name="Group 6">
                                        <path id="Path_26" data-name="Path 26" d="M172.25,43.729a5.288,5.288,0,1,0,5.288,5.288A5.294,5.294,0,0,0,172.25,43.729Zm0,8.795a3.506,3.506,0,1,1,3.506-3.506A3.51,3.51,0,0,1,172.25,52.524Z" transform="translate(-166.962 -43.729)" fill="#05b21c"/>
                                      </g>
                                    </g>
                                    <g id="Group_9" data-name="Group 9" transform="translate(20.508 4.916)">
                                      <g id="Group_8" data-name="Group 8">
                                        <path id="Path_27" data-name="Path 27" d="M349.252,126.5a3.958,3.958,0,1,0,3.958,3.958A3.963,3.963,0,0,0,349.252,126.5Zm0,6.135a2.176,2.176,0,1,1,2.176-2.176A2.179,2.179,0,0,1,349.252,132.639Z" transform="translate(-345.294 -126.504)" fill="#05b21c"/>
                                      </g>
                                    </g>
                                  </svg>