<svg xmlns="http://www.w3.org/2000/svg" width="28.139" height="28.14" viewBox="0 0 28.139 28.14">
  <g id="writing_2_" data-name="writing (2)" transform="translate(-0.006)">
    <path id="Path_300" data-name="Path 300" d="M415.364,153.5a1.651,1.651,0,0,0-2.207-.113c-.094.076-.021.009-1.446,1.434l3.7,3.7,1.33-1.313a1.651,1.651,0,0,0,0-2.332Z" transform="translate(-389.077 -144.604)" fill="#5f655e"/>
    <path id="Path_301" data-name="Path 301" d="M234.915,213.532l-2.176,4.664a.824.824,0,0,0,1.1,1.1l4.664-2.176c.184-.086-.374.437,6.531-6.382l-3.692-3.693C234.491,213.887,235,213.344,234.915,213.532Z" transform="translate(-219.868 -195.662)" fill="#5f655e"/>
    <path id="Path_302" data-name="Path 302" d="M20.019,22.467a2.467,2.467,0,0,1-.692.481l-4.664,2.176a2.473,2.473,0,0,1-3.287-3.287l2.176-4.664a2.467,2.467,0,0,1,.492-.7l7.011-7.011V2.473A2.476,2.476,0,0,0,18.583,0H2.479A2.476,2.476,0,0,0,.006,2.473V25.667A2.476,2.476,0,0,0,2.479,28.14h16.1a2.476,2.476,0,0,0,2.473-2.473V21.442ZM4.4,5.331H16.714a.824.824,0,1,1,0,1.649H4.4a.824.824,0,0,1,0-1.649Zm0,4.4h9.673a.824.824,0,1,1,0,1.649H4.4a.824.824,0,0,1,0-1.649Zm-.824,5.221a.824.824,0,0,1,.824-.824h7.035a.824.824,0,1,1,0,1.649H4.4A.824.824,0,0,1,3.579,14.949Z" transform="translate(0)" fill="#5f655e"/>
  </g>
</svg>
