<svg id="teamwork" xmlns="http://www.w3.org/2000/svg" width="29.999" height="29.999" viewBox="0 0 29.999 29.999">
  <path id="Path_289" data-name="Path 289" d="M46.431,3.264a3.264,3.264,0,1,0-3.264,3.264A3.267,3.267,0,0,0,46.431,3.264Z" transform="translate(-37.581 0)" fill="#5f655e"/>
  <path id="Path_290" data-name="Path 290" d="M11.172,118.453v-1a5.586,5.586,0,0,0-11.172,0v1a.879.879,0,0,0,.879.879h9.414A.879.879,0,0,0,11.172,118.453Z" transform="translate(0 -105.336)" fill="#5f655e"/>
  <path id="Path_291" data-name="Path 291" d="M367.765,3.264A3.264,3.264,0,1,0,364.5,6.527,3.267,3.267,0,0,0,367.765,3.264Z" transform="translate(-340.088 0)" fill="#5f655e"/>
  <path id="Path_292" data-name="Path 292" d="M326.92,111.4a5.592,5.592,0,0,0-5.586,5.586v1a.879.879,0,0,0,.879.879h9.414a.879.879,0,0,0,.879-.879v-1A5.592,5.592,0,0,0,326.92,111.4Z" transform="translate(-302.506 -104.873)" fill="#5f655e"/>
  <path id="Path_293" data-name="Path 293" d="M66.031,269.054c0-.063,0-.125,0-.187H64.276a11.221,11.221,0,0,0,4.585,9.244,7.361,7.361,0,0,1,.937-1.493A9.461,9.461,0,0,1,66.031,269.054Z" transform="translate(-60.508 -253.113)" fill="#5f655e"/>
  <path id="Path_294" data-name="Path 294" d="M166.98,83.121a9.572,9.572,0,0,1,7.757,0,7.4,7.4,0,0,1,1.421-1.259,11.343,11.343,0,0,0-10.6,0A7.4,7.4,0,0,1,166.98,83.121Z" transform="translate(-155.859 -75.829)" fill="#5f655e"/>
  <path id="Path_295" data-name="Path 295" d="M357.213,268.867a9.467,9.467,0,0,1-3.764,7.751,7.361,7.361,0,0,1,.937,1.493,11.222,11.222,0,0,0,4.585-9.244Z" transform="translate(-332.74 -253.113)" fill="#5f655e"/>
  <path id="Path_296" data-name="Path 296" d="M207.1,276.4a3.264,3.264,0,1,0-3.264,3.264A3.267,3.267,0,0,0,207.1,276.4Z" transform="translate(-188.835 -257.129)" fill="#5f655e"/>
  <path id="Path_297" data-name="Path 297" d="M166.253,384.533a5.592,5.592,0,0,0-5.586,5.586v1a.879.879,0,0,0,.879.879h9.414a.879.879,0,0,0,.879-.879v-1a5.592,5.592,0,0,0-5.586-5.586Z" transform="translate(-151.253 -362.002)" fill="#5f655e"/>
</svg>
