<svg xmlns="http://www.w3.org/2000/svg" width="30.618" height="23.322" viewBox="0 0 30.618 23.322">
  <g id="profile" transform="translate(0 -61)">
    <g id="Group_216" data-name="Group 216" transform="translate(0 61)">
      <g id="Group_215" data-name="Group 215">
        <path id="Path_285" data-name="Path 285" d="M27.927,61H2.691A2.694,2.694,0,0,0,0,63.691v17.94a2.694,2.694,0,0,0,2.691,2.691H27.927a2.694,2.694,0,0,0,2.691-2.691V63.691A2.694,2.694,0,0,0,27.927,61ZM11.661,80.734a8.073,8.073,0,1,1,8.073-8.073A8.106,8.106,0,0,1,11.661,80.734ZM26.133,78.94H22.425a.9.9,0,0,1,0-1.794h3.708a.9.9,0,0,1,0,1.794Zm0-3.588H22.425a.9.9,0,0,1,0-1.794h3.708a.9.9,0,0,1,0,1.794Zm0-3.588H22.425a.9.9,0,0,1,0-1.794h3.708a.9.9,0,0,1,0,1.794Zm0-3.588H22.425a.9.9,0,1,1,0-1.794h3.708a.9.9,0,1,1,0,1.794Z" transform="translate(0 -61)" fill="#1d848f"/>
      </g>
    </g>
    <g id="Group_218" data-name="Group 218" transform="translate(5.382 66.382)">
      <g id="Group_217" data-name="Group 217">
        <path id="Path_286" data-name="Path 286" d="M96.279,151a6.264,6.264,0,0,0-5.137,9.869,6.224,6.224,0,0,1,2.476-2.1,3.588,3.588,0,1,1,5.322,0,6.224,6.224,0,0,1,2.476,2.1A6.264,6.264,0,0,0,96.279,151Z" transform="translate(-90 -151)" fill="#1d848f"/>
      </g>
    </g>
    <g id="Group_220" data-name="Group 220" transform="translate(9.867 69.97)">
      <g id="Group_219" data-name="Group 219">
        <path id="Path_287" data-name="Path 287" d="M166.794,211a1.794,1.794,0,1,0,1.794,1.794A1.8,1.8,0,0,0,166.794,211Z" transform="translate(-165 -211)" fill="#1d848f"/>
      </g>
    </g>
    <g id="Group_222" data-name="Group 222" transform="translate(7.792 75.352)">
      <g id="Group_221" data-name="Group 221">
        <path id="Path_288" data-name="Path 288" d="M134.174,301a4.463,4.463,0,0,0-3.869,2.216,6.142,6.142,0,0,0,7.738,0A4.463,4.463,0,0,0,134.174,301Z" transform="translate(-130.305 -301)" fill="#1d848f"/>
      </g>
    </g>
  </g>
</svg>
