<svg id="analysis_2_" data-name="analysis (2)" xmlns="http://www.w3.org/2000/svg" width="31.477" height="31.477" viewBox="0 0 31.477 31.477">
  <path id="Path_6" data-name="Path 6" d="M30.555,0H4.734a.922.922,0,0,0-.922.922V3.689H2.767A2.77,2.77,0,0,0,0,6.455V22.562a2.77,2.77,0,0,0,2.767,2.767H10.4A7.874,7.874,0,0,1,8.733,29.3l-.262.327H7.07a.922.922,0,0,0,0,1.844H21.825a.922.922,0,0,0,0-1.844h-1.4l-.262-.327A7.873,7.873,0,0,1,18.5,25.329h7.629a2.77,2.77,0,0,0,2.767-2.767V17.829h1.66a.922.922,0,0,0,.922-.922V.922A.922.922,0,0,0,30.555,0ZM18.13,29.632H10.764a9.741,9.741,0,0,0,1.487-4.3h4.392A9.74,9.74,0,0,0,18.13,29.632Zm8-6.148H2.767a.923.923,0,0,1-.922-.922V21.517H27.05v1.045A.923.923,0,0,1,26.128,23.485Zm.922-3.812H1.844V6.455a.923.923,0,0,1,.922-.922H3.812V16.906a.922.922,0,0,0,.922.922H27.05Zm2.582-3.689H5.656V1.844H29.632Z" fill="#98d6d2"/>
  <path id="Path_7" data-name="Path 7" d="M122.922,70.451h11.066a.922.922,0,0,0,.922-.922V66.455a.922.922,0,0,0-.922-.922h-2.766V60.922A.922.922,0,0,0,130.3,60h-3.689a.922.922,0,0,0-.922.922v2.152h-2.767A.922.922,0,0,0,122,64v5.533A.922.922,0,0,0,122.922,70.451Zm10.144-3.074v1.23h-1.844v-1.23Zm-5.533-5.533h1.844v6.763h-1.844V61.844Zm-3.689,3.074h1.844v3.689h-1.844Z" transform="translate(-114.5 -56.311)" fill="#98d6d2"/>
  <path id="Path_8" data-name="Path 8" d="M362.922,121.844h3.689a.922.922,0,1,0,0-1.844h-3.689a.922.922,0,1,0,0,1.844Z" transform="translate(-339.745 -112.623)" fill="#98d6d2"/>
  <path id="Path_9" data-name="Path 9" d="M362.922,61.844h3.689a.922.922,0,1,0,0-1.844h-3.689a.922.922,0,1,0,0,1.844Z" transform="translate(-339.745 -56.311)" fill="#98d6d2"/>
</svg>
