<svg xmlns="http://www.w3.org/2000/svg" width="32.627" height="33.071" viewBox="0 0 32.627 33.071">
  <g id="budgeting" transform="translate(-3.429)">
    <path id="Path_16" data-name="Path 16" d="M34.982,16.973H28.536A10.207,10.207,0,0,0,28,14.705h7.081a.973.973,0,0,0,.973-.962A13.575,13.575,0,0,0,22.475,0,.973.973,0,0,0,21.5.973V8.4a10.211,10.211,0,0,0-2.214-.459V4.272a.973.973,0,0,0-.973-.973,14.886,14.886,0,1,0,9.026,26.724.973.973,0,0,0,.179-1.369l-2.243-2.9a10.369,10.369,0,0,0,1.738-2.081l2.8,3.617a.973.973,0,0,0,1.36.178,12.077,12.077,0,0,0,4.779-9.514A.973.973,0,0,0,34.982,16.973ZM23.448,1.985A11.633,11.633,0,0,1,34.082,12.76H27.057a10.37,10.37,0,0,0-3.61-3.493Zm1.913,27.057a12.811,12.811,0,0,1-7.045,2.084,12.941,12.941,0,0,1-.973-25.845V7.939a10.292,10.292,0,1,0,6.386,19Zm-7.045-2.511a8.347,8.347,0,1,1,8.347-8.347A8.356,8.356,0,0,1,18.315,26.532ZM30.735,25.3l-2.76-3.566a10.218,10.218,0,0,0,.606-2.819h5.371A10.119,10.119,0,0,1,30.735,25.3Z" fill="#98d6d2"/>
    <path id="Path_17" data-name="Path 17" d="M177.892,185.085H175.8a.9.9,0,0,1,0-1.807h2.015a1.36,1.36,0,0,1,.969.44.973.973,0,0,0,1.419-1.33,3.312,3.312,0,0,0-2.386-1.055v-.847a.973.973,0,0,0-1.945,0v.847a2.849,2.849,0,1,0-.072,5.7h2.089a.9.9,0,1,1-.014,1.807H175.7a1.374,1.374,0,0,1-.754-.256.973.973,0,0,0-1.109,1.6,3.307,3.307,0,0,0,2.043.6v.847a.973.973,0,1,0,1.945,0v-.847a2.849,2.849,0,1,0,.072-5.7Z" transform="translate(-158.532 -167.872)" fill="#98d6d2"/>
  </g>
</svg>
