<svg xmlns="http://www.w3.org/2000/svg" width="35.488" height="31.468" viewBox="0 0 35.488 31.468">
  <g id="pie-chart" transform="translate(0 -29)">
    <g id="Group_26" data-name="Group 26" transform="translate(0 29)">
      <path id="Path_33" data-name="Path 33" d="M32.369,29H3.119A3.123,3.123,0,0,0,0,32.119V50.695a3.123,3.123,0,0,0,3.119,3.119H13.377v4.575H6.654a1.04,1.04,0,0,0,0,2.079h22.18a1.04,1.04,0,0,0,0-2.079H22.11V53.814H32.369a3.123,3.123,0,0,0,3.119-3.119V32.119A3.123,3.123,0,0,0,32.369,29ZM20.031,58.388H15.457V53.814h4.575Zm13.377-7.694a1.041,1.041,0,0,1-1.04,1.04H3.119a1.041,1.041,0,0,1-1.04-1.04V32.119a1.041,1.041,0,0,1,1.04-1.04h29.25a1.041,1.041,0,0,1,1.04,1.04Z" transform="translate(0 -29)" fill="#98d6d2"/>
    </g>
    <g id="Group_27" data-name="Group 27" transform="translate(4.506 33.992)">
      <path id="Path_34" data-name="Path 34" d="M67.073,101.855a1.04,1.04,0,1,0-.816,1.223A1.04,1.04,0,0,0,67.073,101.855Z" transform="translate(-65.014 -101.019)" fill="#98d6d2"/>
    </g>
    <g id="Group_28" data-name="Group 28" transform="translate(8.941 33.99)">
      <path id="Path_35" data-name="Path 35" d="M135.585,101H130.04a1.04,1.04,0,1,0,0,2.079h5.545a1.04,1.04,0,0,0,0-2.079Z" transform="translate(-129 -101)" fill="#98d6d2"/>
    </g>
    <g id="Group_29" data-name="Group 29" transform="translate(4.506 38.425)">
      <path id="Path_36" data-name="Path 36" d="M67.064,165.822a1.04,1.04,0,1,0-.717,1.2A1.039,1.039,0,0,0,67.064,165.822Z" transform="translate(-65.005 -164.985)" fill="#98d6d2"/>
    </g>
    <g id="Group_30" data-name="Group 30" transform="translate(8.941 38.426)">
      <path id="Path_37" data-name="Path 37" d="M135.585,165H130.04a1.04,1.04,0,1,0,0,2.079h5.545a1.04,1.04,0,1,0,0-2.079Z" transform="translate(-129 -165)" fill="#98d6d2"/>
    </g>
    <g id="Group_31" data-name="Group 31" transform="translate(4.506 42.863)">
      <path id="Path_38" data-name="Path 38" d="M65.84,229.026a1.04,1.04,0,1,0,1.007,1.679A1.04,1.04,0,0,0,65.84,229.026Z" transform="translate(-65.004 -229.006)" fill="#98d6d2"/>
    </g>
    <g id="Group_32" data-name="Group 32" transform="translate(8.941 42.862)">
      <path id="Path_39" data-name="Path 39" d="M135.585,229H130.04a1.04,1.04,0,1,0,0,2.079h5.545a1.04,1.04,0,0,0,0-2.079Z" transform="translate(-129 -229)" fill="#98d6d2"/>
    </g>
    <g id="Group_33" data-name="Group 33" transform="translate(18.922 33.436)">
      <path id="Path_40" data-name="Path 40" d="M279.03,93a6.03,6.03,0,1,0,6.03,6.03A6.037,6.037,0,0,0,279.03,93Zm3.811,4.99H280.07V95.219A3.965,3.965,0,0,1,282.841,97.99Zm-3.811,4.99a3.95,3.95,0,0,1-1.04-7.762V99.03a1.04,1.04,0,0,0,1.04,1.04h3.811A3.957,3.957,0,0,1,279.03,102.981Z" transform="translate(-273 -93)" fill="#98d6d2"/>
    </g>
    <g id="Group_34" data-name="Group 34" transform="translate(8.941 47.298)">
      <path id="Path_41" data-name="Path 41" d="M131.7,293H130.04a1.04,1.04,0,1,0,0,2.079H131.7a1.04,1.04,0,1,0,0-2.079Z" transform="translate(-129 -293)" fill="#98d6d2"/>
    </g>
    <g id="Group_35" data-name="Group 35" transform="translate(18.922 47.298)">
      <path id="Path_42" data-name="Path 42" d="M275.7,293H274.04a1.04,1.04,0,1,0,0,2.079H275.7a1.04,1.04,0,1,0,0-2.079Z" transform="translate(-273 -293)" fill="#98d6d2"/>
    </g>
  </g>
</svg>
