<svg xmlns="http://www.w3.org/2000/svg" width="32.627" height="32.627" viewBox="0 0 32.627 32.627">
  <g id="people_3_" data-name="people (3)" transform="translate(0)">
    <path id="Path_10" data-name="Path 10" d="M.956,312.339h9.755a.956.956,0,0,0,.956-.956v-1.065a5.838,5.838,0,0,0-3.051-5.126,3.823,3.823,0,1,0-5.564,0A5.838,5.838,0,0,0,0,310.318v1.065a.956.956,0,0,0,.956.956Zm2.966-9.766a1.912,1.912,0,1,1,1.912,1.912A1.914,1.914,0,0,1,3.922,302.573ZM5.833,306.4a3.925,3.925,0,0,1,3.921,4.031H1.912A3.926,3.926,0,0,1,5.833,306.4Z" transform="translate(0 -279.712)" fill="#98d6d2"/>
    <path id="Path_11" data-name="Path 11" d="M337.539,305.192a3.823,3.823,0,1,0-5.564,0,5.838,5.838,0,0,0-3.051,5.126v1.065a.956.956,0,0,0,.956.956h9.755a.956.956,0,0,0,.956-.956v-1.065A5.838,5.838,0,0,0,337.539,305.192Zm-4.694-2.619a1.912,1.912,0,1,1,1.912,1.912A1.914,1.914,0,0,1,332.845,302.573Zm5.833,7.854h-7.843a3.923,3.923,0,1,1,7.843,0Z" transform="translate(-307.964 -279.712)" fill="#98d6d2"/>
    <path id="Path_12" data-name="Path 12" d="M176.128,12.633V11.568a5.838,5.838,0,0,0-3.051-5.126,3.823,3.823,0,1,0-5.564,0,5.838,5.838,0,0,0-3.051,5.126v1.065a.956.956,0,0,0,.956.956h9.755A.956.956,0,0,0,176.128,12.633Zm-7.745-8.81A1.912,1.912,0,1,1,170.3,5.735,1.914,1.914,0,0,1,168.383,3.823Zm5.833,7.854h-7.843a3.923,3.923,0,1,1,7.843,0Z" transform="translate(-153.982)" fill="#98d6d2"/>
    <path id="Path_13" data-name="Path 13" d="M185.181,378.343a12.7,12.7,0,0,1-7.7.041.956.956,0,0,0-.577,1.823,14.612,14.612,0,0,0,8.873-.047.956.956,0,1,0-.6-1.816Z" transform="translate(-165.006 -354.189)" fill="#98d6d2"/>
    <path id="Path_14" data-name="Path 14" d="M55.9,120.378A14.613,14.613,0,0,0,51.71,128.2a.956.956,0,1,0,1.881.342,12.7,12.7,0,0,1,3.638-6.786.956.956,0,1,0-1.327-1.376Z" transform="translate(-48.4 -112.456)" fill="#98d6d2"/>
    <path id="Path_15" data-name="Path 15" d="M370.479,120.377a.956.956,0,0,0-1.327,1.376,12.7,12.7,0,0,1,3.638,6.786.956.956,0,0,0,1.881-.342,14.613,14.613,0,0,0-4.192-7.821Z" transform="translate(-345.354 -112.456)" fill="#98d6d2"/>
  </g>
</svg>
