<svg id="home" xmlns="http://www.w3.org/2000/svg" width="32.627" height="31.011" viewBox="0 0 32.627 31.011">
  <g id="Group_1" data-name="Group 1" transform="translate(0)">
    <path id="Path_5" data-name="Path 5" d="M32.079,26.453l-2.756-2.511V15.614a.96.96,0,0,0-.959-.959H21.729a.96.96,0,0,0-.959.959v.534L17.44,13.115a1.665,1.665,0,0,0-2.254,0L.548,26.453a1.673,1.673,0,0,0,1.127,2.91H4.013V42.727a.96.96,0,0,0,.959.959H13a.96.96,0,0,0,.959-.959V34.613h4.716v8.114a.96.96,0,0,0,.959.959h8.023a.959.959,0,0,0,.959-.959V29.363h2.338a1.673,1.673,0,0,0,1.127-2.91Zm-4.425.991a.96.96,0,0,0-.959.959V41.768h-6.1V33.653a.96.96,0,0,0-.959-.959H13a.96.96,0,0,0-.959.959v8.114h-6.1V28.4a.96.96,0,0,0-.959-.959H2.31l14-12.76,4.769,4.345a.959.959,0,0,0,1.606-.709V16.574H27.4v7.792a.959.959,0,0,0,.313.709l2.6,2.369H27.654Z" transform="translate(0 -12.676)" fill="#98d6d2"/>
  </g>
</svg>
