<svg xmlns="http://www.w3.org/2000/svg" width="32.627" height="27.053" viewBox="0 0 32.627 27.053">
  <g id="group_3_" data-name="group (3)" transform="translate(0 -43.729)">
    <g id="Group_3" data-name="Group 3" transform="translate(0 55.579)">
      <g id="Group_2" data-name="Group 2">
        <path id="Path_24" data-name="Path 24" d="M27.847,232.132H24.654a4.766,4.766,0,0,0-1.256.169,4.783,4.783,0,0,0-4.262-2.62H13.491a4.783,4.783,0,0,0-4.262,2.62,4.766,4.766,0,0,0-1.256-.169H4.779A4.785,4.785,0,0,0,0,236.911v5.105a2.871,2.871,0,0,0,2.868,2.868H29.759a2.871,2.871,0,0,0,2.868-2.868v-5.105A4.785,4.785,0,0,0,27.847,232.132ZM8.711,234.459v8.513H2.868a.957.957,0,0,1-.956-.956v-5.105a2.871,2.871,0,0,1,2.868-2.868H7.973a2.859,2.859,0,0,1,.75.1C8.716,234.248,8.711,234.353,8.711,234.459ZM22,242.972H10.623v-8.513a2.871,2.871,0,0,1,2.868-2.868h5.645A2.871,2.871,0,0,1,22,234.459Zm8.711-.956a.957.957,0,0,1-.956.956H23.915v-8.513c0-.106,0-.211-.012-.316a2.861,2.861,0,0,1,.75-.1h3.194a2.871,2.871,0,0,1,2.868,2.868Z" transform="translate(0 -229.68)" fill="#98d6d2"/>
      </g>
    </g>
    <g id="Group_5" data-name="Group 5" transform="translate(2.129 49.004)">
      <g id="Group_4" data-name="Group 4">
        <path id="Path_25" data-name="Path 25" d="M37.661,126.5a4.247,4.247,0,1,0,4.247,4.247A4.252,4.252,0,0,0,37.661,126.5Zm0,6.582A2.335,2.335,0,1,1,40,130.751,2.338,2.338,0,0,1,37.661,133.086Z" transform="translate(-33.414 -126.504)" fill="#98d6d2"/>
      </g>
    </g>
    <g id="Group_7" data-name="Group 7" transform="translate(10.639 43.729)">
      <g id="Group_6" data-name="Group 6">
        <path id="Path_26" data-name="Path 26" d="M172.636,43.729A5.674,5.674,0,1,0,178.31,49.4,5.68,5.68,0,0,0,172.636,43.729Zm0,9.436A3.762,3.762,0,1,1,176.4,49.4,3.766,3.766,0,0,1,172.636,53.165Z" transform="translate(-166.962 -43.729)" fill="#98d6d2"/>
      </g>
    </g>
    <g id="Group_9" data-name="Group 9" transform="translate(22.004 49.004)">
      <g id="Group_8" data-name="Group 8">
        <path id="Path_27" data-name="Path 27" d="M349.541,126.5a4.247,4.247,0,1,0,4.247,4.247A4.252,4.252,0,0,0,349.541,126.5Zm0,6.582a2.335,2.335,0,1,1,2.335-2.335A2.338,2.338,0,0,1,349.541,133.086Z" transform="translate(-345.294 -126.504)" fill="#98d6d2"/>
      </g>
    </g>
  </g>
</svg>
