<svg xmlns="http://www.w3.org/2000/svg" width="30.327" height="34.965" viewBox="0 0 30.327 34.965">
  <g id="document" transform="translate(0 0)">
    <path id="Path_18" data-name="Path 18" d="M29.3,8.195H26.224V5.122A1.024,1.024,0,0,0,25.2,4.1H19.751L15.953.3a1.023,1.023,0,0,0-.724-.3H1.024A1.024,1.024,0,0,0,0,1.024V25.746A1.024,1.024,0,0,0,1.024,26.77H4.1v3.073a1.024,1.024,0,0,0,1.024,1.024H8.2v3.073a1.024,1.024,0,0,0,1.024,1.024H29.3a1.024,1.024,0,0,0,1.024-1.024V9.219A1.024,1.024,0,0,0,29.3,8.195ZM15.98,3.224l3.332,3.332H15.98ZM2.048,2.049H13.931V7.58A1.024,1.024,0,0,0,14.956,8.6h5.122V24.722H2.048Zm4.1,24.722H21.1a1.024,1.024,0,0,0,1.024-1.024V6.9a1.024,1.024,0,0,0-.3-.724L21.8,6.146h2.376V28.819H6.146Zm22.132,6.146H10.249V30.868H25.2a1.024,1.024,0,0,0,1.024-1.024v-19.6h2.054Zm0,0" fill="#98d6d2"/>
    <path id="Path_19" data-name="Path 19" d="M61.024,62.049h4.1a1.024,1.024,0,0,0,0-2.049h-4.1a1.024,1.024,0,0,0,0,2.049Zm0,0" transform="translate(-55.903 -55.903)" fill="#98d6d2"/>
    <path id="Path_20" data-name="Path 20" d="M61.024,122.049h4.091a1.024,1.024,0,1,0,0-2.049H61.024a1.024,1.024,0,1,0,0,2.049Zm0,0" transform="translate(-55.903 -111.805)" fill="#98d6d2"/>
    <path id="Path_21" data-name="Path 21" d="M71.849,180H61.024a1.024,1.024,0,1,0,0,2.049H71.849a1.024,1.024,0,1,0,0-2.049Zm0,0" transform="translate(-55.903 -167.708)" fill="#98d6d2"/>
    <path id="Path_22" data-name="Path 22" d="M71.849,240H61.024a1.024,1.024,0,1,0,0,2.049H71.849a1.024,1.024,0,1,0,0-2.049Zm0,0" transform="translate(-55.903 -223.61)" fill="#98d6d2"/>
    <path id="Path_23" data-name="Path 23" d="M71.849,300H61.024a1.024,1.024,0,1,0,0,2.049H71.849a1.024,1.024,0,1,0,0-2.049Zm0,0" transform="translate(-55.903 -279.512)" fill="#98d6d2"/>
  </g>
</svg>
