<svg xmlns="http://www.w3.org/2000/svg" width="30.554" height="26.91" viewBox="0 0 30.554 26.91">
                                    <g id="wallet_3_" data-name="wallet (3)" transform="translate(0 -30.532)">
                                      <circle id="Ellipse_9" data-name="Ellipse 9" cx="0.895" cy="0.895" r="0.895" transform="translate(21.603 46.701)" fill="#42c5c5"/>
                                      <path id="Path_274" data-name="Path 274" d="M28.764,43.274v-4.63a.9.9,0,0,0-.9-.9h-.72l-2.412-6.628a.9.9,0,0,0-1.146-.536l-9.9,3.583h-11A2.688,2.688,0,0,0,0,36.854v17.9a2.688,2.688,0,0,0,2.685,2.685H27.869a.9.9,0,0,0,.9-.9v-4.63a2.69,2.69,0,0,0,1.79-2.531V45.805A2.69,2.69,0,0,0,28.764,43.274Zm-8.689-9.512a4.481,4.481,0,0,0,4.479,2.093l.689,1.894H9.055Zm3.846.352a2.7,2.7,0,0,1-2.1-.983l1.542-.558ZM2.685,35.959H8.741l-4.948,1.79H2.685a.9.9,0,1,1,0-1.79Zm0,19.693a.9.9,0,0,1-.9-.9V39.385a2.673,2.673,0,0,0,.9.154H26.974V43.12H22.5a4.476,4.476,0,1,0,0,8.951h4.476v3.581Zm26.079-6.266a.9.9,0,0,1-.9.9H22.5a2.685,2.685,0,0,1,0-5.371h5.371a.9.9,0,0,1,.9.9Z" transform="translate(0 0)" fill="#42c5c5"/>
                                      <path id="Path_275" data-name="Path 275" d="M125.552,217.538a2.763,2.763,0,0,0-1.868-.7,1.012,1.012,0,0,1-.9-1.015.911.911,0,0,1,.6-.805,1.306,1.306,0,0,1,1.466.378.9.9,0,0,0,1.246-1.286,3.436,3.436,0,0,0-1.518-.872v-.875a.9.9,0,0,0-1.79,0v.967l-.1.041A2.693,2.693,0,0,0,121,215.826a2.784,2.784,0,0,0,2.685,2.8.811.811,0,0,1,.9.776.893.893,0,0,1-.572.846c-.439.16-.959-.069-1.428-.627a.9.9,0,0,0-1.371,1.151,3.752,3.752,0,0,0,1.581,1.152v1.179a.9.9,0,0,0,1.79,0v-1.158l.041-.014a2.689,2.689,0,0,0,1.749-2.528A2.491,2.491,0,0,0,125.552,217.538Z" transform="translate(-113.778 -170.14)" fill="#42c5c5"/>
                                    </g>
                                  </svg>