<svg width="27" height="26" viewBox="0 0 27 26" fill="none" xmlns="http://www.w3.org/2000/svg">
<g id="new-document">
<path id="Path 374" d="M20.654 12.2819V7.29988C20.6539 7.20011 20.6342 7.10132 20.596 7.00918C20.5577 6.91703 20.5016 6.83334 20.431 6.76288L13.913 0.248879C13.7716 0.107278 13.5801 0.0271472 13.38 0.0258789L1.57299 0.0258789C1.37142 0.0258789 1.17811 0.10595 1.03559 0.248478C0.893059 0.391005 0.812988 0.584314 0.812988 0.785879L0.812988 25.2139C0.812988 25.4154 0.893059 25.6088 1.03559 25.7513C1.17811 25.8938 1.37142 25.9739 1.57299 25.9739H19.894C21.6496 25.9743 23.3388 25.3023 24.6143 24.0959C25.8898 22.8895 26.6548 21.2404 26.7521 19.4875C26.8494 17.7345 26.2716 16.0109 25.1374 14.6707C24.0033 13.3306 22.3989 12.4758 20.654 12.2819ZM14.14 2.62588L18.058 6.54388H14.14V2.62588ZM2.33299 24.4539V1.54688H12.62V7.29988C12.62 7.50144 12.7001 7.69475 12.8426 7.83728C12.9851 7.97981 13.1784 8.05988 13.38 8.05988H19.134V12.2819C17.7862 12.4315 16.5129 12.9771 15.4748 13.8497C14.4367 14.7224 13.6804 15.8829 13.3013 17.185C12.9221 18.487 12.9372 19.8722 13.3445 21.1657C13.7518 22.4592 14.5332 23.603 15.59 24.4529L2.33299 24.4539ZM19.893 24.4539C18.8355 24.4539 17.8017 24.1403 16.9224 23.5527C16.043 22.9652 15.3577 22.1301 14.953 21.1531C14.5483 20.1761 14.4424 19.1009 14.6487 18.0637C14.855 17.0265 15.3643 16.0738 16.1121 15.326C16.8599 14.5782 17.8126 14.0689 18.8498 13.8626C19.8871 13.6563 20.9622 13.7622 21.9392 14.1669C22.9162 14.5716 23.7513 15.2569 24.3389 16.1362C24.9264 17.0156 25.24 18.0493 25.24 19.1069C25.2384 20.5243 24.6747 21.8833 23.6725 22.8857C22.6703 23.8881 21.3104 24.452 19.893 24.4539Z" fill="#12DC2D"/>
<path id="Path 375" d="M21.929 18.3468H20.653V17.0717C20.653 16.8702 20.573 16.6769 20.4305 16.5344C20.2879 16.3918 20.0946 16.3118 19.8931 16.3118C19.6915 16.3118 19.4982 16.3918 19.3557 16.5344C19.2131 16.6769 19.1331 16.8702 19.1331 17.0717V18.3468H17.8621C17.6605 18.3468 17.4672 18.4268 17.3246 18.5694C17.1821 18.7119 17.1021 18.9052 17.1021 19.1068C17.1021 19.3083 17.1821 19.5016 17.3246 19.6442C17.4672 19.7867 17.6605 19.8668 17.8621 19.8668H19.1371V21.1418C19.1371 21.2416 19.1567 21.3404 19.1949 21.4326C19.2331 21.5248 19.2891 21.6086 19.3596 21.6792C19.4302 21.7497 19.514 21.8057 19.6062 21.8439C19.6984 21.8821 19.7973 21.9018 19.8971 21.9018C19.9969 21.9018 20.0957 21.8821 20.1879 21.8439C20.2801 21.8057 20.3639 21.7497 20.4344 21.6792C20.505 21.6086 20.561 21.5248 20.5992 21.4326C20.6374 21.3404 20.657 21.2416 20.657 21.1418V19.8668H21.933C22.1346 19.8668 22.3279 19.7867 22.4705 19.6442C22.613 19.5016 22.6931 19.3083 22.6931 19.1068C22.6931 18.9052 22.613 18.7119 22.4705 18.5694C22.3279 18.4268 22.1346 18.3468 21.933 18.3468H21.929Z" fill="#12DC2D"/>
</g>
</svg>
