<svg id="writing_1_" data-name="writing (1)" xmlns="http://www.w3.org/2000/svg" width="23.644" height="26.382" viewBox="0 0 23.644 26.382">
                                    <g id="Group_183" data-name="Group 183" transform="translate(0)">
                                      <g id="Group_182" data-name="Group 182" transform="translate(0)">
                                        <path id="Path_256" data-name="Path 256" d="M119.135,201.031A1.031,1.031,0,0,0,118.1,200H107.49a1.031,1.031,0,0,0,0,2.061H118.1A1.031,1.031,0,0,0,119.135,201.031Z" transform="translate(-102.343 -189.694)" fill="#5605b2"/>
                                        <path id="Path_257" data-name="Path 257" d="M107.49,280a1.031,1.031,0,0,0,0,2.061h6.447a1.031,1.031,0,0,0,0-2.061Z" transform="translate(-102.342 -265.572)" fill="#5605b2"/>
                                        <path id="Path_258" data-name="Path 258" d="M34.139,24.321H30.692a2.063,2.063,0,0,1-2.061-2.061V4.122a2.063,2.063,0,0,1,2.061-2.061h12.67a2.063,2.063,0,0,1,2.061,2.061V10.46a1.031,1.031,0,1,0,2.061,0V4.122A4.127,4.127,0,0,0,43.362,0H30.692A4.127,4.127,0,0,0,26.57,4.122V22.26a4.127,4.127,0,0,0,4.122,4.122h3.447a1.031,1.031,0,0,0,0-2.061Z" transform="translate(-26.57)" fill="#5605b2"/>
                                        <path id="Path_259" data-name="Path 259" d="M255.021,272.928a3.1,3.1,0,0,0-4.371,0l-5.658,5.645a1.031,1.031,0,0,0-.258.43l-1.232,4.057a1.03,1.03,0,0,0,1.261,1.293l4.16-1.152a1.031,1.031,0,0,0,.453-.264l5.646-5.635A3.1,3.1,0,0,0,255.021,272.928Zm-6.91,8.358-2.093.58.612-2.016,3.818-3.809,1.458,1.458Zm5.454-5.443-.2.2-1.457-1.457.2-.2a1.031,1.031,0,0,1,1.458,1.457Z" transform="translate(-232.281 -258.007)" fill="#5605b2"/>
                                        <path id="Path_260" data-name="Path 260" d="M118.1,120H107.49a1.031,1.031,0,0,0,0,2.061H118.1a1.031,1.031,0,0,0,0-2.061Z" transform="translate(-102.343 -113.817)" fill="#5605b2"/>
                                      </g>
                                    </g>
                                  </svg>