<svg id="receipt" xmlns="http://www.w3.org/2000/svg" width="20.573" height="30.095" viewBox="0 0 20.573 30.095">
                                    <path id="Path_268" data-name="Path 268" d="M101.322,2.676,98.971.266a.882.882,0,0,0-1.262,0l-1.72,1.763L94.268.266a.882.882,0,0,0-1.262,0l-1.72,1.763L89.566.266a.882.882,0,0,0-1.262,0l-1.72,1.763L84.864.266a.882.882,0,0,0-1.262,0l-2.351,2.41A.882.882,0,0,0,81,3.292V29.213a.882.882,0,0,0,.882.882h18.809a.882.882,0,0,0,.882-.882V3.292A.882.882,0,0,0,101.322,2.676ZM99.809,28.331H82.763V3.65l1.469-1.506,1.72,1.763a.882.882,0,0,0,1.262,0l1.72-1.763,1.72,1.763a.882.882,0,0,0,1.262,0l1.72-1.763,1.72,1.763a.882.882,0,0,0,1.262,0l1.72-1.763L99.809,3.65Z" transform="translate(-81 0)" fill="#c58842"/>
                                    <path id="Path_269" data-name="Path 269" d="M152.876,161.882a.882.882,0,0,0-.882-.882h-6.113a.882.882,0,0,0,0,1.763h6.113A.882.882,0,0,0,152.876,161.882Z" transform="translate(-141.238 -151.537)" fill="#c58842"/>
                                    <path id="Path_270" data-name="Path 270" d="M149.173,225h-3.292a.882.882,0,1,0,0,1.763h3.292a.882.882,0,0,0,0-1.763Z" transform="translate(-141.238 -211.775)" fill="#c58842"/>
                                    <path id="Path_271" data-name="Path 271" d="M149.173,289h-3.292a.882.882,0,1,0,0,1.763h3.292a.882.882,0,0,0,0-1.763Z" transform="translate(-141.238 -272.013)" fill="#c58842"/>
                                    <path id="Path_272" data-name="Path 272" d="M149.173,353h-3.292a.882.882,0,0,0,0,1.763h3.292a.882.882,0,0,0,0-1.763Z" transform="translate(-141.238 -332.251)" fill="#c58842"/>
                                    <circle id="Ellipse_8" data-name="Ellipse 8" cx="0.912" cy="0.912" r="0.912" transform="translate(14.846 9.576)" fill="#c58842"/>
                                    <path id="Path_273" data-name="Path 273" d="M271.467,240.935a3.146,3.146,0,0,0-3.172-3c-.887-.062-1.531-.582-1.531-1.236,0-.927,1.3-1,1.7-1,.769,0,.921.118,1.044.212l.08.061a.882.882,0,1,0,1.045-1.42l-.046-.035a2.563,2.563,0,0,0-1.476-.551v-.089a.882.882,0,0,0-1.763,0v.175A2.726,2.726,0,0,0,265,236.7a2.808,2.808,0,0,0,.944,2.087,3.678,3.678,0,0,0,2.227.909c.9.063,1.531.571,1.531,1.236,0,.927-1.3,1-1.7,1-.761,0-.851-.068-1.015-.192l-.114-.085a.882.882,0,0,0-1.034,1.428l.084.063a2.4,2.4,0,0,0,1.432.525v.082a.882.882,0,1,0,1.763,0v-.175A2.726,2.726,0,0,0,271.467,240.935Z" transform="translate(-254.186 -219.305)" fill="#c58842"/>
                                  </svg>