<svg xmlns="http://www.w3.org/2000/svg" width="40" height="45.167" viewBox="0 0 40 45.167">
  <g id="pdf-file-format-symbol" transform="translate(-31.504)">
    <path id="Path_310" data-name="Path 310" d="M120.407,260.483c0-1.216-.845-1.942-2.335-1.942a5.105,5.105,0,0,0-1.236.117v3.906a4.632,4.632,0,0,0,1,.078C119.426,262.642,120.407,261.837,120.407,260.483Z" transform="translate(-78.335 -237.34)" fill="#024146"/>
    <path id="Path_311" data-name="Path 311" d="M257.711,259.019a6.226,6.226,0,0,0-1.355.118v8.653a5.426,5.426,0,0,0,1.041.06c2.707.019,4.474-1.472,4.474-4.631A3.793,3.793,0,0,0,257.711,259.019Z" transform="translate(-206.414 -237.779)" fill="#024146"/>
    <path id="Path_312" data-name="Path 312" d="M68.973,16.156H67.888V10.923a.763.763,0,0,0-.01-.1.869.869,0,0,0-.21-.574L58.96.3S58.955.3,58.953.3a.879.879,0,0,0-.176-.148c-.019-.013-.038-.023-.058-.034a.913.913,0,0,0-.175-.073c-.016,0-.031-.011-.048-.016a.883.883,0,0,0-.2-.025h-21.4A1.773,1.773,0,0,0,35.12,1.771V16.156H34.036A2.532,2.532,0,0,0,31.5,18.687V31.852a2.532,2.532,0,0,0,2.532,2.531H35.12V43.4a1.773,1.773,0,0,0,1.771,1.771H66.117A1.774,1.774,0,0,0,67.888,43.4V34.384h1.085A2.532,2.532,0,0,0,71.5,31.852V18.688A2.532,2.532,0,0,0,68.973,16.156ZM36.891,1.772H57.408v9.062a.886.886,0,0,0,.886.886h7.824v4.437H36.891ZM58.635,25.341a6.7,6.7,0,0,1-2.2,5.357,9.488,9.488,0,0,1-6.1,1.707,26,26,0,0,1-3.395-.2V19.218a26.76,26.76,0,0,1,4.043-.274c2.51,0,4.139.452,5.415,1.413A5.853,5.853,0,0,1,58.635,25.341Zm-23.1,6.927V19.218a24.582,24.582,0,0,1,4.042-.274A6.34,6.34,0,0,1,43.623,20a3.864,3.864,0,0,1,1.412,3.061A4.222,4.222,0,0,1,43.818,26.2a6.131,6.131,0,0,1-4.3,1.394,7.487,7.487,0,0,1-1.02-.059v4.729H35.538ZM66.117,42.916H36.891V34.384H66.117v8.532Zm2.566-21.421H63.6v3.022h4.749V26.95H63.6v5.318h-3V19.042h8.084Z" transform="translate(0)" fill="#024146"/>
  </g>
</svg>
