<svg xmlns="http://www.w3.org/2000/svg" width="40" height="45.167" viewBox="0 0 40 45.167">
  <g id="png-file-format-symbol" transform="translate(-31.504)">
    <path id="Path_308" data-name="Path 308" d="M109.026,256.189c0-1.148-.8-1.833-2.2-1.833a4.78,4.78,0,0,0-1.165.111v3.684a4.323,4.323,0,0,0,.945.073C108.1,258.226,109.026,257.466,109.026,256.189Z" transform="translate(-68.071 -233.498)" fill="#024146"/>
    <path id="Path_309" data-name="Path 309" d="M68.972,16.156H67.888V10.923a.764.764,0,0,0-.01-.1.869.869,0,0,0-.21-.574L58.96.3S58.955.3,58.953.3a.879.879,0,0,0-.176-.148c-.019-.013-.038-.023-.058-.034a.913.913,0,0,0-.175-.073c-.016,0-.031-.011-.048-.016a.884.884,0,0,0-.2-.025h-21.4A1.773,1.773,0,0,0,35.12,1.771V16.155H34.036A2.531,2.531,0,0,0,31.5,18.687V31.852a2.532,2.532,0,0,0,2.532,2.531H35.12V43.4a1.773,1.773,0,0,0,1.771,1.771H66.117A1.774,1.774,0,0,0,67.888,43.4V34.383h1.085A2.532,2.532,0,0,0,71.5,31.852V18.688A2.532,2.532,0,0,0,68.972,16.156ZM36.891,1.772H57.407v9.062a.886.886,0,0,0,.886.886h7.824v4.437H36.891ZM48.137,27.541V31.3H45.546V18.821h3.3l2.592,4.572a36.026,36.026,0,0,1,2.036,4.277h.055a46.334,46.334,0,0,1-.241-5.2V18.821h2.592V31.3H52.914l-2.666-4.814A46.3,46.3,0,0,1,48.08,22.08l-.055.018C48.1,23.746,48.137,25.5,48.137,27.541ZM34.788,31.3V18.988a23.125,23.125,0,0,1,3.814-.259,5.985,5.985,0,0,1,3.814,1,3.649,3.649,0,0,1,1.333,2.888A3.985,3.985,0,0,1,42.6,25.579a5.785,5.785,0,0,1-4.054,1.315,7.185,7.185,0,0,1-.962-.055V31.3h-2.8ZM66.117,42.916H36.891V34.383H66.117v8.532Zm2.628-12.191a13.98,13.98,0,0,1-4.166.7,6.954,6.954,0,0,1-5.072-1.685,6.039,6.039,0,0,1-1.759-4.536c.018-4.147,3.037-6.516,7.127-6.516a8.584,8.584,0,0,1,3.462.611l-.592,2.259a6.917,6.917,0,0,0-2.908-.537,3.776,3.776,0,0,0-4.128,4.036,4.088,4.088,0,0,0,5.314,3.906V26.356H64.1v-2.2h4.648v6.573Z" transform="translate(0)" fill="#024146"/>
  </g>
</svg>
