<svg xmlns="http://www.w3.org/2000/svg" width="27" height="27" viewBox="0 0 27 27">
  <g id="Group_318" data-name="Group 318" transform="translate(-1347 -347)">
    <circle id="Ellipse_61" data-name="Ellipse 61" cx="13.5" cy="13.5" r="13.5" transform="translate(1347 347)" fill="#cb2d2d"/>
    <g id="close_3_" data-name="close (3)" transform="translate(1353.714 352.04)">
      <g id="close_1_" transform="translate(0.001 1.844)">
        <path id="Path_281" data-name="Path 281" d="M1.269,15.669a1.268,1.268,0,0,1-.9-.3,1.268,1.268,0,0,1,0-1.788L11.134,2.813a1.268,1.268,0,0,1,1.851,1.724L2.157,15.365a1.268,1.268,0,0,1-.887.3Z" transform="translate(-0.001 -2.445)" fill="#fff"/>
        <path id="Path_282" data-name="Path 282" d="M13.485,15.069A1.268,1.268,0,0,1,12.6,14.7L1.833,3.937A1.268,1.268,0,0,1,3.621,2.149L14.449,12.913a1.268,1.268,0,0,1,.059,1.792q-.029.03-.059.059a1.268,1.268,0,0,1-.964.3Z" transform="translate(-1.464 -1.844)" fill="#fff"/>
      </g>
    </g>
  </g>
</svg>
