<svg xmlns="http://www.w3.org/2000/svg" width="20.719" height="34.58" viewBox="0 0 20.719 34.58">
  <g id="smartphone_6_" data-name="smartphone (6)" transform="translate(-35.229 -17.25)">
    <path id="Path_183" data-name="Path 183" d="M52.342,17.25H38.835a3.61,3.61,0,0,0-3.606,3.606V48.224a3.61,3.61,0,0,0,3.606,3.606H52.342a3.61,3.61,0,0,0,3.606-3.606V20.856a3.61,3.61,0,0,0-3.606-3.606Zm-2.694,1.294v.837a.638.638,0,0,1-.638.637H42.168a.638.638,0,0,1-.637-.637v-.837Zm5.005,29.68a2.314,2.314,0,0,1-2.312,2.312H38.835a2.314,2.314,0,0,1-2.312-2.312V20.856a2.314,2.314,0,0,1,2.312-2.312h1.4v.837a1.934,1.934,0,0,0,1.932,1.932h6.842a1.934,1.934,0,0,0,1.932-1.932v-.837h1.4a2.314,2.314,0,0,1,2.311,2.312Z" transform="translate(0 0)" fill="#c2c2c2"/>
    <path id="Path_184" data-name="Path 184" d="M59.336,98.917H51.376a.647.647,0,1,0,0,1.294h7.959a.647.647,0,1,0,0-1.294Z" transform="translate(-9.767 -51.463)" fill="#c2c2c2"/>
  </g>
</svg>
