<svg width="27" height="26" viewBox="0 0 27 26" fill="none" xmlns="http://www.w3.org/2000/svg">
<path id="star (7)" d="M6.31128 25.495C6.10261 25.4947 5.89668 25.4475 5.7088 25.3567C5.52092 25.2659 5.35593 25.1339 5.22611 24.9705C5.09628 24.8072 5.00496 24.6166 4.95894 24.4131C4.91291 24.2096 4.91337 23.9983 4.96028 23.795L6.63828 16.412L0.949276 11.42C0.745071 11.2413 0.597755 11.0067 0.52557 10.7451C0.453385 10.4835 0.459502 10.2066 0.543162 9.94845C0.626823 9.69034 0.784353 9.46243 0.996246 9.29295C1.20814 9.12347 1.46509 9.01987 1.73528 8.99496L9.26228 8.31196L12.2383 1.34696C12.345 1.09731 12.5226 0.884492 12.7492 0.734921C12.9758 0.58535 13.2413 0.505615 13.5128 0.505615C13.7843 0.505615 14.0498 0.58535 14.2764 0.734921C14.5029 0.884492 14.6806 1.09731 14.7873 1.34696L17.7643 8.31196L25.2913 8.99496C25.5616 9.01953 25.8188 9.12288 26.031 9.29223C26.2432 9.46157 26.401 9.68946 26.4849 9.94763C26.5688 10.2058 26.5751 10.4829 26.503 10.7446C26.4309 11.0064 26.2835 11.2412 26.0793 11.42L20.3893 16.412L22.0673 23.802C22.1281 24.0667 22.1098 24.3436 22.0146 24.598C21.9194 24.8525 21.7515 25.0733 21.5318 25.2332C21.3121 25.393 21.0503 25.4847 20.7789 25.4969C20.5075 25.5092 20.2385 25.4414 20.0053 25.302L13.5143 21.423L7.02228 25.298C6.80767 25.4276 6.56198 25.4967 6.31128 25.498V25.495ZM13.5113 19.746C13.762 19.7472 14.0077 19.8164 14.2223 19.946L20.3483 23.61L18.7673 16.632C18.7118 16.3881 18.7232 16.1338 18.8005 15.8959C18.8778 15.6581 19.018 15.4456 19.2063 15.281L24.5743 10.57L17.4743 9.92396C17.2241 9.90165 16.9847 9.81169 16.7818 9.66372C16.5789 9.51574 16.42 9.31533 16.3223 9.08396L13.5133 2.51196L10.7043 9.08496C10.6067 9.3154 10.4484 9.51499 10.2462 9.66241C10.044 9.80983 9.80551 9.89955 9.55628 9.92196L2.44728 10.567L7.81928 15.278C8.00796 15.4425 8.14846 15.6551 8.22577 15.8932C8.30308 16.1313 8.31432 16.386 8.25828 16.63L6.67428 23.605L12.8003 19.942C13.0149 19.8124 13.2606 19.7432 13.5113 19.742V19.746ZM17.8193 8.44596C17.8193 8.44596 17.8213 8.44396 17.8193 8.44296V8.44596Z" fill="#5F655E"/>
</svg>
