<svg xmlns="http://www.w3.org/2000/svg" width="52.703" height="66.522" viewBox="0 0 52.703 66.522">
  <g id="surface1" transform="translate(-0.5)">
    <path id="Path_323" data-name="Path 323" d="M36.348.514A1.609,1.609,0,0,0,35.191,0H9.241A8.778,8.778,0,0,0,.5,8.725V57.8a8.778,8.778,0,0,0,8.741,8.725H44.462A8.778,8.778,0,0,0,53.2,57.8V18.832a1.729,1.729,0,0,0-.466-1.125Zm.466,5.158L47.789,17.193H40.654a3.827,3.827,0,0,1-3.84-3.824Zm7.648,57.637H9.241A5.566,5.566,0,0,1,3.714,57.8V8.725A5.566,5.566,0,0,1,9.241,3.214H33.6V13.369a7.029,7.029,0,0,0,7.054,7.038H49.99V57.8A5.555,5.555,0,0,1,44.462,63.309Zm0,0" fill="#2dcbc1"/>
    <path id="Path_324" data-name="Path 324" d="M117.227,401.934H90.779a1.607,1.607,0,0,0,0,3.214h26.464a1.607,1.607,0,1,0-.016-3.214Zm0,0" transform="translate(-77.151 -349.712)" fill="#2dcbc1"/>
    <path id="Path_325" data-name="Path 325" d="M121.19,183.1l6.62-7.119v17.547a1.607,1.607,0,0,0,3.214,0V175.985l6.62,7.119a1.6,1.6,0,0,0,2.346-2.185l-9.416-10.107a1.6,1.6,0,0,0-2.346,0l-9.416,10.107a1.6,1.6,0,0,0,.08,2.266A1.639,1.639,0,0,0,121.19,183.1Zm0,0" transform="translate(-102.566 -148.171)" fill="#2dcbc1"/>
  </g>
</svg>
