<svg id="wall-clock" xmlns="http://www.w3.org/2000/svg" width="22" height="22" viewBox="0 0 22 22">
  <g id="Group_233" data-name="Group 233">
    <g id="Group_232" data-name="Group 232">
      <path id="Path_303" data-name="Path 303" d="M415.787,376.9a.859.859,0,0,0-1.2.177c-.156.209-.323.415-.5.611a.859.859,0,1,0,1.288,1.138c.2-.232.4-.475.587-.723A.859.859,0,0,0,415.787,376.9Z" transform="translate(-396.09 -360.539)" fill="#c7c7c7"/>
      <path id="Path_304" data-name="Path 304" d="M463.776,286.444a.86.86,0,0,0-1.022.657c-.056.255-.123.511-.2.76a.859.859,0,1,0,1.642.507c.091-.3.171-.6.237-.9A.859.859,0,0,0,463.776,286.444Z" transform="translate(-442.642 -274.117)" fill="#c7c7c7"/>
      <path id="Path_305" data-name="Path 305" d="M335.234,442.3c-.228.127-.464.246-.7.354a.859.859,0,1,0,.707,1.566c.282-.127.562-.268.833-.42a.859.859,0,1,0-.838-1.5Z" transform="translate(-319.673 -423.193)" fill="#c7c7c7"/>
      <path id="Path_306" data-name="Path 306" d="M160.206,76.859v6.519l-3.151,3.151a.859.859,0,0,0,1.215,1.215l3.4-3.4a.859.859,0,0,0,.252-.608V76.859a.859.859,0,0,0-1.719,0Z" transform="translate(-150.066 -72.734)" fill="#c7c7c7"/>
      <path id="Path_307" data-name="Path 307" d="M21.141,1.848a.859.859,0,0,0-.859.859V5.093A11,11,0,1,0,11,22h.043c.31,0,.622-.013.93-.039a.859.859,0,1,0-.143-1.713c-.26.022-.524.033-.786.033H11A9.281,9.281,0,1,1,18.989,6.273H16.626a.859.859,0,0,0,0,1.719H19.25a2.733,2.733,0,0,0,1.43-.4.858.858,0,0,0,.077-.049A2.749,2.749,0,0,0,22,5.242V2.707A.859.859,0,0,0,21.141,1.848Z" fill="#c7c7c7"/>
    </g>
  </g>
</svg>
